<?xml version="1.0" standalone="no"?>
<!DOCTYPE svg PUBLIC "-//W3C//DTD SVG 20010904//EN"
 "http://www.w3.org/TR/2001/REC-SVG-20010904/DTD/svg10.dtd">
<svg version="1.0" xmlns="http://www.w3.org/2000/svg"
 width="521.000000pt" height="521.000000pt" viewBox="0 0 521.000000 521.000000"
 preserveAspectRatio="xMidYMid meet">
<metadata>
Created by potrace 1.11, written by Peter Selinger 2001-2013
</metadata>
<g transform="translate(0.000000,521.000000) scale(0.100000,-0.100000)"
fill="#000000" stroke="none">
<path d="M2379 4857 c-38 -25 -59 -62 -63 -110 -4 -39 5 -56 66 -132 54 -67
111 -177 128 -245 6 -25 13 -80 17 -122 l5 -77 -413 0 c-228 -1 -427 -3 -444
-6 -144 -27 -278 -88 -381 -172 -126 -104 -242 -279 -290 -438 -40 -129 -20
-362 51 -590 24 -79 24 -81 25 -535 2 -489 3 -538 21 -645 73 -446 296 -835
650 -1130 132 -109 389 -249 559 -304 265 -84 351 -85 585 -6 591 199 1042
689 1184 1286 16 68 33 144 37 169 4 25 9 277 11 560 l4 515 29 105 c52 189
65 267 64 400 -1 143 -13 194 -75 316 -54 107 -139 215 -226 289 -76 65 -228
147 -298 160 -22 5 -47 10 -55 12 -43 10 -134 13 -435 14 l-330 0 -1 67 c-2
207 -87 421 -232 579 -61 67 -131 82 -193 40z"/>
</g>
</svg>
